<svg xmlns="http://www.w3.org/2000/svg" xmlns:xlink="http://www.w3.org/1999/xlink" viewBox="0 0 137.41 96.02"><defs><style>.cls-1{fill:url(#未命名的渐变_179);}.cls-2{fill:url(#未命名的渐变_172);}</style><linearGradient id="未命名的渐变_179" x1="68.7" y1="96.02" x2="68.7" gradientUnits="userSpaceOnUse"><stop offset="0.01" stop-color="#90caf9"/><stop offset="0.17" stop-color="#1565c0"/><stop offset="1" stop-color="#2196f3"/></linearGradient><linearGradient id="未命名的渐变_172" x1="68.69" y1="96.02" x2="68.69" y2="54.89" gradientUnits="userSpaceOnUse"><stop offset="0" stop-color="#2196f3"/><stop offset="0" stop-color="#1f8ee6"/><stop offset="1" stop-color="#0d47a1"/></linearGradient></defs><title>资源 2</title><g id="图层_2" data-name="图层 2"><g id="图层_10" data-name="图层 10"><path class="cls-1" d="M131.05,6.36h0A21.7,21.7,0,0,0,115.71,0h-8a8,8,0,0,0-6.59,12.59l.05.06a8.73,8.73,0,0,1-1.28,11.5c-7.1,6.47-20.3,17-31.21,17s-24.11-10.5-31.2-17A8.72,8.72,0,0,1,36.2,12.67l0-.07A8,8,0,0,0,29.65,0h-8c-.38,0-.75,0-1.12.06h-.3A21.77,21.77,0,0,0,13,1.83c-.5.21-1,.45-1.49.7l-.15.09a18.63,18.63,0,0,0-1.66,1l-.13.09c-.25.16-.5.31-.73.49s-.39.33-.59.48l-.65.54c-.34.29-.67.58-1,.89l-.28.26h0c-.12.12-.23.26-.35.38-.29.3-.57.6-.83.92s-.36.44-.53.66-.53.67-.77,1L3.45,10c-.24.38-.48.75-.7,1.14-.09.16-.16.32-.25.49A21.62,21.62,0,0,0,.3,18.12l-.09.46c-.06.47-.1.93-.14,1.4,0,.2,0,.4,0,.61,0,.45,0,.89,0,1.34,0,.23,0,.45,0,.67,0,.44.06.88.1,1.31,0,.23.05.47.08.7.06.43.13.86.22,1.28,0,.24.09.47.15.7.09.43.2.85.33,1.27.06.23.14.45.21.68.14.42.29.83.45,1.25l.28.63c.19.42.37.84.58,1.24.1.19.21.36.31.55.24.42.47.85.74,1.27l.1.14c.34.52.69,1,1.08,1.53L43.56,84.44A30.44,30.44,0,0,0,67.42,96H69.9A30.44,30.44,0,0,0,93.85,84.43L128.12,41l4.62-5.85A21.7,21.7,0,0,0,131.05,6.36Z"/><path class="cls-2" d="M99.9,71.88c-7.1-6.48-20.3-17-31.21-17s-24.11,10.5-31.2,17a9.63,9.63,0,0,0-.71.72,2.56,2.56,0,0,0,0,3.23l6,7.66A33,33,0,0,0,68.66,96h0a33,33,0,0,0,26-12.56l6-7.64a2.52,2.52,0,0,0,0-3.22A9.49,9.49,0,0,0,99.9,71.88Z"/></g></g></svg>